2.8Hzlow3min_grf.mot
version=1
nRows=27
nColumns 19
inDegrees=yes
endheader
time	1_ground_force_vx	1_ground_force_vy	1_ground_force_vz	1_ground_force_px	1_ground_force_py	1_ground_force_pz	1_ground_torque_x	1_ground_torque_y	1_ground_torque_z	2_ground_force_vx	2_ground_force_vy	2_ground_force_vz	2_ground_force_px	2_ground_force_py	2_ground_force_pz	2_ground_torque_x	2_ground_torque_y	2_ground_torque_z
            3.751500	          -25.362503	          182.284995	           -8.785472	           -0.241366	            0.005881	           -0.325836	            0.027470	           -0.197429	            0.009515	           -8.255371	          214.205764	           33.242252	           -0.268274	            0.005516	           -0.697872	            0.006583	           -0.170805	           -0.026507
            3.752000	          -26.697589	          186.979903	          -10.688024	           -0.241173	            0.005886	           -0.327014	            0.027033	           -0.189326	            0.010822	          -10.479043	          220.273027	           33.734153	           -0.267540	            0.005519	           -0.698115	            0.008058	           -0.169385	           -0.025941
            3.752500	          -27.756102	          192.753509	          -11.898782	           -0.241123	            0.005882	           -0.326211	            0.007036	           -0.048864	            0.003016	          -12.604986	          225.235419	           34.315927	           -0.267142	            0.005518	           -0.697447	            0.005584	           -0.099776	           -0.015201
            3.753000	          -29.455197	          196.182161	          -12.797004	           -0.241494	            0.005883	           -0.326316	            0.025477	           -0.169686	            0.011069	          -14.545983	          230.933407	           35.369531	           -0.266634	            0.005521	           -0.697650	            0.003647	           -0.057905	           -0.008869
            3.753500	          -31.154206	          199.790882	          -13.648597	           -0.241597	            0.005880	           -0.325716	            0.019420	           -0.124537	            0.008508	          -16.679052	          237.919901	           36.380886	           -0.265507	            0.005530	           -0.699104	            0.008329	           -0.118813	           -0.018168
            3.754000	          -32.347903	          202.677066	          -14.137687	           -0.241454	            0.005882	           -0.326199	            0.020732	           -0.129895	            0.009061	          -18.941516	          241.776576	           37.052634	           -0.265000	            0.005527	           -0.697692	            0.006098	           -0.077842	           -0.011929
            3.754500	          -33.909470	          206.105744	          -15.036250	           -0.240923	            0.005880	           -0.325726	            0.026491	           -0.161016	            0.011747	          -20.978270	          248.027149	           37.967465	           -0.264362	            0.005532	           -0.698373	            0.012222	           -0.144506	           -0.022121
            3.755000	          -34.922349	          211.158887	          -16.387782	           -0.241553	            0.005879	           -0.325500	            0.019802	           -0.119730	            0.009292	          -23.153598	          253.724961	           38.833456	           -0.264331	            0.005528	           -0.697430	            0.009470	           -0.103771	           -0.015882
            3.755500	          -35.981267	          216.032147	          -17.831684	           -0.241160	            0.005878	           -0.325206	            0.028216	           -0.169408	            0.013983	          -25.337128	          261.634394	           39.191123	           -0.263478	            0.005533	           -0.697916	            0.002602	           -0.026866	           -0.004024
            3.756000	          -36.719987	          221.627516	          -19.502570	           -0.241429	            0.005878	           -0.325316	            0.021865	           -0.131969	            0.011613	          -27.654477	          267.701151	           39.729992	           -0.262957	            0.005534	           -0.697661	           -0.006119	            0.059234	            0.008791
            3.756500	          -37.822896	          226.317357	          -20.213437	           -0.240660	            0.005880	           -0.325701	            0.031401	           -0.187891	            0.016781	          -30.252183	          273.582083	           40.456035	           -0.262201	            0.005535	           -0.697123	           -0.015540	            0.140532	            0.020781
            3.757000	          -38.558770	          231.907810	          -20.737926	           -0.241094	            0.005879	           -0.325407	            0.028047	           -0.168686	            0.015084	          -32.572547	          280.567094	           41.702110	           -0.261702	            0.005538	           -0.697367	           -0.011515	            0.099185	            0.014742
            3.757500	          -39.202405	          235.695231	          -21.178660	           -0.240522	            0.005881	           -0.325882	            0.026333	           -0.158320	            0.014226	          -34.470788	          287.370932	           42.524996	           -0.261050	            0.005542	           -0.697838	           -0.007063	            0.058882	            0.008713
            3.758000	          -40.167334	          241.645779	          -21.609322	           -0.240001	            0.005879	           -0.325480	            0.040994	           -0.246621	            0.022054	          -36.738863	          292.881922	           44.047364	           -0.260400	            0.005543	           -0.697660	           -0.012555	            0.100087	            0.015052
            3.758500	          -40.902866	          247.235642	          -21.996243	           -0.240378	            0.005880	           -0.325587	            0.051234	           -0.309681	            0.027552	          -38.442287	          297.659991	           45.097583	           -0.260598	            0.005540	           -0.697025	           -0.017536	            0.135781	            0.020572
            3.759000	          -41.959882	          252.285826	          -22.659822	           -0.240882	            0.005882	           -0.326116	            0.060145	           -0.361627	            0.032481	          -40.199263	          304.279922	           46.013608	           -0.260305	            0.005542	           -0.697176	           -0.021870	            0.165539	            0.025033
            3.759500	          -42.282760	          257.515238	          -23.049313	           -0.240708	            0.005880	           -0.325540	            0.060823	           -0.370432	            0.033156	          -42.052712	          311.636915	           46.697661	           -0.259842	            0.005547	           -0.698189	           -0.027784	            0.205900	            0.030853
            3.760000	          -42.742535	          261.121643	          -23.307851	           -0.240260	            0.005878	           -0.325237	            0.066777	           -0.407951	            0.036414	          -43.712374	          317.155292	           46.764998	           -0.259540	            0.005547	           -0.697883	           -0.046859	            0.339982	            0.050131
            3.760500	          -42.559758	          265.627958	          -23.197270	           -0.240529	            0.005880	           -0.325599	            0.063333	           -0.395278	            0.034520	          -44.810194	          322.857268	           47.536675	           -0.259381	            0.005547	           -0.697758	           -0.038887	            0.280177	            0.041253
            3.761000	          -42.834984	          270.313632	          -22.901355	           -0.240240	            0.005878	           -0.325225	            0.066068	           -0.416927	            0.035323	          -46.098010	          329.294750	           48.451844	           -0.259058	            0.005548	           -0.697658	           -0.050747	            0.362503	            0.053338
            3.761500	          -42.972426	          276.080141	          -22.417720	           -0.240603	            0.005879	           -0.325497	            0.073140	           -0.469892	            0.038155	          -47.290075	          335.179585	           49.505786	           -0.258652	            0.005551	           -0.697872	           -0.053750	            0.380964	            0.056268
            3.762000	          -43.110346	          281.306806	          -22.165683	           -0.240637	            0.005880	           -0.325587	            0.082728	           -0.539820	            0.042535	          -47.776693	          340.329999	           50.650658	           -0.258756	            0.005549	           -0.697615	           -0.055205	            0.393244	            0.058526
            3.762500	          -43.110500	          285.271667	          -21.919399	           -0.240948	            0.005881	           -0.325785	            0.093212	           -0.616804	            0.047393	          -48.078728	          346.219053	           51.422653	           -0.258538	            0.005551	           -0.697881	           -0.059571	            0.428973	            0.063714
            3.763000	          -42.240594	          290.139433	          -21.992402	           -0.240960	            0.005879	           -0.325506	            0.096469	           -0.662617	            0.050226	          -48.190671	          351.371886	           52.285796	           -0.258757	            0.005549	           -0.697693	           -0.063688	            0.464368	            0.069100
            3.763500	          -41.736787	          293.924686	          -21.885710	           -0.240904	            0.005880	           -0.325758	            0.089509	           -0.630353	            0.046936	          -48.352096	          357.260944	           53.198516	           -0.258603	            0.005552	           -0.698214	           -0.068951	            0.509464	            0.075863
            3.764000	          -40.911463	          298.069413	          -21.503132	           -0.240992	            0.005881	           -0.325860	            0.088071	           -0.641658	            0.046290	          -48.368588	          361.863641	           53.496511	           -0.258908	            0.005549	           -0.697771	           -0.074073	            0.554168	            0.081926
            3.764500	          -40.178471	          302.035006	          -21.396235	           -0.240973	            0.005881	           -0.325791	            0.086839	           -0.652799	            0.046244	          -48.245635	          366.833285	           54.311969	           -0.259057	            0.005549	           -0.697967	           -0.071546	            0.543995	            0.080542
